<svg xmlns="http://www.w3.org/2000/svg" viewBox="0 0 96 96" role="img">
  <title>Grade SSS</title>
  <path d="M48 4 L82 14 L92 48 L82 82 L48 92 L14 82 L4 48 L14 14 Z" fill="#0B1020" stroke="#58D9FF" stroke-width="3"/>
  <path d="M48 11 L76 19 L85 48 L76 76 L48 85 L19 76 L11 48 L19 19 Z" fill="none" stroke="#F8FAFF" stroke-width="1" opacity="0.28"/>
  <g fill="#58D9FF" opacity="1.0"><rect x="18" y="34" width="3" height="3" rx="1"/><rect x="22" y="34" width="3" height="3" rx="1"/><rect x="26" y="34" width="3" height="3" rx="1"/><rect x="30" y="34" width="3" height="3" rx="1"/><rect x="14" y="38" width="3" height="3" rx="1"/><rect x="14" y="42" width="3" height="3" rx="1"/><rect x="18" y="46" width="3" height="3" rx="1"/><rect x="22" y="46" width="3" height="3" rx="1"/><rect x="26" y="46" width="3" height="3" rx="1"/><rect x="30" y="50" width="3" height="3" rx="1"/><rect x="30" y="54" width="3" height="3" rx="1"/><rect x="14" y="58" width="3" height="3" rx="1"/><rect x="18" y="58" width="3" height="3" rx="1"/><rect x="22" y="58" width="3" height="3" rx="1"/><rect x="26" y="58" width="3" height="3" rx="1"/><rect x="42" y="34" width="3" height="3" rx="1"/><rect x="46" y="34" width="3" height="3" rx="1"/><rect x="50" y="34" width="3" height="3" rx="1"/><rect x="54" y="34" width="3" height="3" rx="1"/><rect x="38" y="38" width="3" height="3" rx="1"/><rect x="38" y="42" width="3" height="3" rx="1"/><rect x="42" y="46" width="3" height="3" rx="1"/><rect x="46" y="46" width="3" height="3" rx="1"/><rect x="50" y="46" width="3" height="3" rx="1"/><rect x="54" y="50" width="3" height="3" rx="1"/><rect x="54" y="54" width="3" height="3" rx="1"/><rect x="38" y="58" width="3" height="3" rx="1"/><rect x="42" y="58" width="3" height="3" rx="1"/><rect x="46" y="58" width="3" height="3" rx="1"/><rect x="50" y="58" width="3" height="3" rx="1"/><rect x="66" y="34" width="3" height="3" rx="1"/><rect x="70" y="34" width="3" height="3" rx="1"/><rect x="74" y="34" width="3" height="3" rx="1"/><rect x="78" y="34" width="3" height="3" rx="1"/><rect x="62" y="38" width="3" height="3" rx="1"/><rect x="62" y="42" width="3" height="3" rx="1"/><rect x="66" y="46" width="3" height="3" rx="1"/><rect x="70" y="46" width="3" height="3" rx="1"/><rect x="74" y="46" width="3" height="3" rx="1"/><rect x="78" y="50" width="3" height="3" rx="1"/><rect x="78" y="54" width="3" height="3" rx="1"/><rect x="62" y="58" width="3" height="3" rx="1"/><rect x="66" y="58" width="3" height="3" rx="1"/><rect x="70" y="58" width="3" height="3" rx="1"/><rect x="74" y="58" width="3" height="3" rx="1"/></g>
</svg>
